<svg width="13" height="19" viewBox="0 0 13 19" fill="none" xmlns="http://www.w3.org/2000/svg">
<path d="M0.5 3.5C0.5 2.70435 0.816071 1.94129 1.37868 1.37868C1.94129 0.816071 2.70435 0.5 3.5 0.5H6.5V6.5H3.5C2.70435 6.5 1.94129 6.18393 1.37868 5.62132C0.816071 5.05871 0.5 4.29565 0.5 3.5Z" fill="#F24E1E"/>
<path d="M6.5 0.5H9.5C9.89397 0.5 10.2841 0.577597 10.648 0.728361C11.012 0.879125 11.3427 1.1001 11.6213 1.37868C11.8999 1.65726 12.1209 1.98797 12.2716 2.35195C12.4224 2.71593 12.5 3.10603 12.5 3.5C12.5 3.89397 12.4224 4.28407 12.2716 4.64805C12.1209 5.01203 11.8999 5.34274 11.6213 5.62132C11.3427 5.8999 11.012 6.12088 10.648 6.27164C10.2841 6.4224 9.89397 6.5 9.5 6.5H6.5V0.5Z" fill="#FF7262"/>
<path d="M6.5 9.5C6.5 9.10603 6.5776 8.71593 6.72836 8.35195C6.87913 7.98797 7.1001 7.65726 7.37868 7.37868C7.65726 7.1001 7.98797 6.87913 8.35195 6.72836C8.71593 6.5776 9.10603 6.5 9.5 6.5C9.89397 6.5 10.2841 6.5776 10.648 6.72836C11.012 6.87913 11.3427 7.1001 11.6213 7.37868C11.8999 7.65726 12.1209 7.98797 12.2716 8.35195C12.4224 8.71593 12.5 9.10603 12.5 9.5C12.5 9.89397 12.4224 10.2841 12.2716 10.6481C12.1209 11.012 11.8999 11.3427 11.6213 11.6213C11.3427 11.8999 11.012 12.1209 10.648 12.2716C10.2841 12.4224 9.89397 12.5 9.5 12.5C9.10603 12.5 8.71593 12.4224 8.35195 12.2716C7.98797 12.1209 7.65726 11.8999 7.37868 11.6213C7.1001 11.3427 6.87913 11.012 6.72836 10.6481C6.5776 10.2841 6.5 9.89397 6.5 9.5Z" fill="#1ABCFE"/>
<path d="M0.5 15.5C0.5 14.7044 0.816071 13.9413 1.37868 13.3787C1.94129 12.8161 2.70435 12.5 3.5 12.5H6.5V15.5C6.5 16.2957 6.18393 17.0587 5.62132 17.6213C5.05871 18.1839 4.29565 18.5 3.5 18.5C2.70435 18.5 1.94129 18.1839 1.37868 17.6213C0.816071 17.0587 0.5 16.2957 0.5 15.5Z" fill="#0ACF83"/>
<path d="M0.5 9.5C0.5 8.70435 0.816071 7.94129 1.37868 7.37868C1.94129 6.81607 2.70435 6.5 3.5 6.5H6.5V12.5H3.5C2.70435 12.5 1.94129 12.1839 1.37868 11.6213C0.816071 11.0587 0.5 10.2956 0.5 9.5Z" fill="#A259FF"/>
<path d="M6.5 0.5H3.5C2.70435 0.5 1.94129 0.816071 1.37868 1.37868C0.816071 1.94129 0.5 2.70435 0.5 3.5C0.5 4.29565 0.816071 5.05871 1.37868 5.62132C1.94129 6.18393 2.70435 6.5 3.5 6.5M6.5 0.5V6.5M6.5 0.5H9.5C9.89397 0.5 10.2841 0.577597 10.648 0.728361C11.012 0.879125 11.3427 1.1001 11.6213 1.37868C11.8999 1.65726 12.1209 1.98797 12.2716 2.35195C12.4224 2.71593 12.5 3.10603 12.5 3.5C12.5 3.89397 12.4224 4.28407 12.2716 4.64805C12.1209 5.01203 11.8999 5.34275 11.6213 5.62132C11.3427 5.8999 11.012 6.12088 10.648 6.27164C10.2841 6.4224 9.89397 6.5 9.5 6.5M6.5 6.5H3.5M6.5 6.5H9.5M6.5 6.5V12.5M3.5 6.5C2.70435 6.5 1.94129 6.81607 1.37868 7.37868C0.816071 7.94129 0.5 8.70435 0.5 9.5C0.5 10.2956 0.816071 11.0587 1.37868 11.6213C1.94129 12.1839 2.70435 12.5 3.5 12.5M9.5 6.5C9.10603 6.5 8.71593 6.5776 8.35195 6.72836C7.98797 6.87913 7.65726 7.1001 7.37868 7.37868C7.1001 7.65726 6.87913 7.98797 6.72836 8.35195C6.5776 8.71593 6.5 9.10603 6.5 9.5C6.5 9.89397 6.5776 10.2841 6.72836 10.6481C6.87913 11.012 7.1001 11.3427 7.37868 11.6213C7.65726 11.8999 7.98797 12.1209 8.35195 12.2716C8.71593 12.4224 9.10603 12.5 9.5 12.5C9.89397 12.5 10.2841 12.4224 10.648 12.2716C11.012 12.1209 11.3427 11.8999 11.6213 11.6213C11.8999 11.3427 12.1209 11.012 12.2716 10.6481C12.4224 10.2841 12.5 9.89397 12.5 9.5C12.5 9.10603 12.4224 8.71593 12.2716 8.35195C12.1209 7.98797 11.8999 7.65726 11.6213 7.37868C11.3427 7.1001 11.012 6.87913 10.648 6.72836C10.2841 6.5776 9.89397 6.5 9.5 6.5ZM3.5 12.5C2.70435 12.5 1.94129 12.8161 1.37868 13.3787C0.816071 13.9413 0.5 14.7044 0.5 15.5C0.5 16.2957 0.816071 17.0587 1.37868 17.6213C1.94129 18.1839 2.70435 18.5 3.5 18.5C4.29565 18.5 5.05871 18.1839 5.62132 17.6213C6.18393 17.0587 6.5 16.2957 6.5 15.5V12.5M3.5 12.5H6.5" stroke="#333333" stroke-linecap="round" stroke-linejoin="round"/>
</svg>
