<svg width="15" height="16" viewBox="0 0 15 16" fill="none" xmlns="http://www.w3.org/2000/svg">
<path d="M5.31681 12.6679C1.98348 13.6679 1.98348 11.0012 0.650146 10.6679M9.98348 14.6679V12.0879C10.0085 11.77 9.96554 11.4504 9.85749 11.1504C9.74944 10.8504 9.57877 10.5768 9.35681 10.3479C11.4501 10.1146 13.6501 9.32122 13.6501 5.68122C13.65 4.75044 13.2919 3.85535 12.6501 3.18122C12.9541 2.36689 12.9326 1.46679 12.5901 0.667886C12.5901 0.667886 11.8035 0.434553 9.98348 1.65455C8.45549 1.24043 6.84481 1.24043 5.31681 1.65455C3.49681 0.434553 2.71015 0.667886 2.71015 0.667886C2.36773 1.46679 2.34624 2.36689 2.65015 3.18122C2.00356 3.86035 1.64516 4.76353 1.65015 5.70122C1.65015 9.31455 3.85015 10.1079 5.94348 10.3679C5.72414 10.5945 5.55499 10.8648 5.44702 11.1612C5.33905 11.4575 5.29469 11.7733 5.31681 12.0879V14.6679" stroke="#333333" stroke-width="1.3" stroke-linecap="round" stroke-linejoin="round"/>
</svg>
