<svg width="60" height="60" viewBox="0 0 60 60" fill="none" xmlns="http://www.w3.org/2000/svg">
<g clip-path="url(#clip0_366_34)">
<path d="M59.25 30C59.25 13.8457 46.1543 0.75 30 0.75C13.8457 0.75 0.75 13.8457 0.75 30C0.75 46.1543 13.8457 59.25 30 59.25C46.1543 59.25 59.25 46.1543 59.25 30Z" fill="white"/>
<mask id="mask0_366_34" style="mask-type:luminance" maskUnits="userSpaceOnUse" x="15" y="15" width="30" height="30">
<path d="M45 15H15V45H45V15Z" fill="white"/>
</mask>
<g mask="url(#mask0_366_34)">
<path d="M44.4 30.341C44.4 29.2773 44.3046 28.2546 44.1273 27.2727H30V33.075H38.0727C37.725 34.95 36.6683 36.5387 35.0796 37.6023V41.366H39.9273C42.7637 38.7546 44.4 34.9091 44.4 30.341Z" fill="#4285F4"/>
<path d="M30 45C34.05 45 37.4454 43.6567 39.9271 41.3659L35.0794 37.6023C33.7363 38.5023 32.0181 39.034 30 39.034C26.0931 39.034 22.7863 36.3954 21.6067 32.85H16.5954V36.7363C19.0636 41.6386 24.1363 45 30 45Z" fill="#34A853"/>
<path d="M21.6068 32.85C21.3068 31.95 21.1364 30.9887 21.1364 30C21.1364 29.0114 21.3068 28.05 21.6068 27.15V23.2637H16.5954C15.5796 25.2887 15 27.5796 15 30C15 32.4204 15.5796 34.7114 16.5954 36.7364L21.6068 32.85Z" fill="#FBBC04"/>
<path d="M30 20.9659C32.2021 20.9659 34.1794 21.7227 35.734 23.2091L40.0363 18.9067C37.4386 16.4863 34.0431 15 30 15C24.1363 15 19.0636 18.3614 16.5954 23.2636L21.6067 27.15C22.7863 23.6046 26.0931 20.9659 30 20.9659Z" fill="#E94235"/>
</g>
<path d="M59.25 30C59.25 13.8457 46.1543 0.75 30 0.75C13.8457 0.75 0.75 13.8457 0.75 30C0.75 46.1543 13.8457 59.25 30 59.25C46.1543 59.25 59.25 46.1543 59.25 30Z" stroke="#747775"/>
</g>
<defs>
<clipPath id="clip0_366_34">
<rect width="60" height="60" fill="white"/>
</clipPath>
</defs>
</svg>
